<svg width="118" height="118" viewBox="0 0 118 118" fill="none" xmlns="http://www.w3.org/2000/svg">
<path d="M49.1666 101.124C32.3095 106.814 18.2619 101.124 9.83331 83.5833" stroke="#03045E" stroke-width="8.5" stroke-linecap="round" stroke-linejoin="round"/>
<path d="M49.1666 108.167V92.2263C49.1666 89.2847 50.0708 86.728 51.5286 84.4187C52.5287 82.834 51.8438 80.5861 50.0374 80.0895C35.0752 75.9763 24.5833 69.3628 24.5833 47.4264C24.5833 41.7234 26.4519 36.3615 29.7365 31.6948C30.554 30.5334 30.9626 29.9527 31.0609 29.4267C31.1592 28.9008 30.9884 28.2144 30.6466 26.8416C29.256 21.2543 29.3461 15.3213 31.4333 9.97212C31.4333 9.97212 35.7462 8.56689 45.5626 14.6993C47.8038 16.0995 48.9245 16.7996 49.9115 16.9561C50.8983 17.1127 52.2179 16.7847 54.8567 16.1287C58.4655 15.2316 62.184 14.75 66.375 14.75C70.5659 14.75 74.2844 15.2316 77.8933 16.1287C80.532 16.7847 81.8517 17.1127 82.8384 16.9561C83.8257 16.7996 84.9462 16.0995 87.1872 14.6993C97.0039 8.56689 101.317 9.97212 101.317 9.97212C103.404 15.3213 103.494 21.2543 102.103 26.8416C101.762 28.2144 101.591 28.9008 101.689 29.4267C101.787 29.9527 102.196 30.5334 103.013 31.6948C106.298 36.3615 108.167 41.7234 108.167 47.4264C108.167 69.3628 97.675 75.9763 82.7126 80.0895C80.9062 80.5861 80.2213 82.834 81.2213 84.4187C82.6791 86.728 83.5833 89.2847 83.5833 92.2263V108.167" stroke="#03045E" stroke-width="8.5" stroke-linecap="round" stroke-linejoin="round"/>
</svg>
