<svg width="36" height="36" viewBox="0 0 36 36" fill="none" xmlns="http://www.w3.org/2000/svg">
<path d="M18 0C26.4853 0 30.7282 -0.000296831 33.3643 2.63574C36.0003 5.27178 36 9.51472 36 18C36 26.4853 36.0003 30.7282 33.3643 33.3643L33.1123 33.6035C30.4589 36.0002 26.2202 36 18 36C9.77977 36 5.54112 36.0002 2.8877 33.6035L2.63574 33.3643C-0.000296831 30.7282 0 26.4853 0 18C0 9.51472 -0.000296831 5.27178 2.63574 2.63574C5.27178 -0.000296831 9.51472 0 18 0ZM18 3.5C13.6584 3.5 10.7542 3.50699 8.59082 3.79785C6.52813 4.07518 5.67065 4.552 5.11133 5.11133C4.552 5.67065 4.07518 6.52813 3.79785 8.59082C3.50699 10.7542 3.5 13.6584 3.5 18C3.5 22.3416 3.50699 25.2458 3.79785 27.4092C4.07518 29.4719 4.552 30.3293 5.11133 30.8887C5.67065 31.448 6.52813 31.9248 8.59082 32.2021C10.7542 32.493 13.6584 32.5 18 32.5C22.3416 32.5 25.2458 32.493 27.4092 32.2021C29.4719 31.9248 30.3293 31.448 30.8887 30.8887C31.448 30.3293 31.9248 29.4719 32.2021 27.4092C32.493 25.2458 32.5 22.3416 32.5 18C32.5 13.6584 32.493 10.7542 32.2021 8.59082C31.9248 6.52813 31.448 5.67065 30.8887 5.11133C30.3293 4.552 29.4719 4.07518 27.4092 3.79785C25.2458 3.50699 22.3416 3.5 18 3.5ZM10.6729 12C10.8928 18.5528 14.4116 20.5047 15.9512 21.0625V12H19.4697V17.0195C22.2847 16.6849 24.064 13.5337 24.6016 12H28.2666C27.8267 15.2068 24.9193 17.6705 23.4287 18.4141C25.9211 19.181 29 22.8754 29 24.9668H25.1885C23.781 21.3974 20.7893 20.3195 19.4697 20.2266V24.9668C11.1862 25.5243 6.78789 18.9713 7.00781 12H10.6729Z" fill="#03045E"/>
</svg>
